<?xml version="1.0" standalone="no"?><svg xmlns="http://www.w3.org/2000/svg" viewBox="0 0 1440 320"><path fill="#1e2ede" fill-opacity="1" d="M0,128L30,106.7C60,85,120,43,180,48C240,53,300,107,360,117.3C420,128,480,96,540,122.7C600,149,660,235,720,229.3C780,224,840,128,900,106.7C960,85,1020,139,1080,176C1140,213,1200,235,1260,213.3C1320,192,1380,128,1410,96L1440,64L1440,0L1410,0C1380,0,1320,0,1260,0C1200,0,1140,0,1080,0C1020,0,960,0,900,0C840,0,780,0,720,0C660,0,600,0,540,0C480,0,420,0,360,0C300,0,240,0,180,0C120,0,60,0,30,0L0,0Z"></path></svg>